<?xml version="1.0" encoding="UTF-8"?>
<svg id="Capa_1" data-name="Capa 1" xmlns="http://www.w3.org/2000/svg" xmlns:xlink="http://www.w3.org/1999/xlink" viewBox="0 0 1483.54 569.09">
  <defs>
    <style>
      .cls-1, .cls-2, .cls-3 {
        fill: none;
      }

      .cls-2 {
        stroke-width: 10px;
      }

      .cls-2, .cls-3, .cls-4 {
        stroke: #fff;
        stroke-miterlimit: 10;
      }

      .cls-3 {
        stroke-width: 14px;
      }

      .cls-5, .cls-4 {
        fill: #fff;
      }

      .cls-6 {
        clip-path: url(#clippath);
      }
    </style>
    <clipPath id="clippath">
      <circle class="cls-1" cx="405.47" cy="286.86" r="198.79"/>
    </clipPath>
  </defs>
  <g>
    <path class="cls-5" d="M808.82,130.64v22.6h-37.2v117h-28v-117h-37.2v-22.6h102.4Z"/>
    <path class="cls-5" d="M828.72,184.64c4.47-8.67,10.53-15.33,18.2-20,7.67-4.67,16.23-7,25.7-7,8.27,0,15.5,1.67,21.7,5,6.2,3.33,11.17,7.53,14.9,12.6v-15.8h28.2v110.8h-28.2v-16.2c-3.6,5.2-8.57,9.5-14.9,12.9-6.33,3.4-13.63,5.1-21.9,5.1-9.33,0-17.83-2.4-25.5-7.2-7.67-4.8-13.73-11.57-18.2-20.3-4.47-8.73-6.7-18.77-6.7-30.1s2.23-21.13,6.7-29.8ZM905.22,197.34c-2.67-4.87-6.27-8.6-10.8-11.2-4.53-2.6-9.4-3.9-14.6-3.9s-10,1.27-14.4,3.8c-4.4,2.53-7.97,6.23-10.7,11.1-2.73,4.87-4.1,10.63-4.1,17.3s1.37,12.5,4.1,17.5c2.73,5,6.33,8.83,10.8,11.5,4.47,2.67,9.23,4,14.3,4s10.07-1.3,14.6-3.9c4.53-2.6,8.13-6.33,10.8-11.2,2.67-4.87,4-10.7,4-17.5s-1.33-12.63-4-17.5Z"/>
    <path class="cls-5" d="M992.82,122.24v148h-28V122.24h28Z"/>
    <path class="cls-5" d="M1122.62,223.24h-81c.67,8,3.47,14.27,8.4,18.8,4.93,4.53,11,6.8,18.2,6.8,10.4,0,17.8-4.47,22.2-13.4h30.2c-3.2,10.67-9.33,19.43-18.4,26.3-9.07,6.87-20.2,10.3-33.4,10.3-10.67,0-20.23-2.37-28.7-7.1-8.47-4.73-15.07-11.43-19.8-20.1-4.73-8.67-7.1-18.67-7.1-30s2.33-21.53,7-30.2c4.67-8.67,11.2-15.33,19.6-20,8.4-4.67,18.07-7,29-7s19.97,2.27,28.3,6.8c8.33,4.53,14.8,10.97,19.4,19.3,4.6,8.33,6.9,17.9,6.9,28.7,0,4-.27,7.6-.8,10.8ZM1094.42,204.44c-.13-7.2-2.73-12.97-7.8-17.3-5.07-4.33-11.27-6.5-18.6-6.5-6.93,0-12.77,2.1-17.5,6.3-4.73,4.2-7.63,10.03-8.7,17.5h52.6Z"/>
    <path class="cls-5" d="M1237.22,170.34c8.13,8.33,12.2,19.97,12.2,34.9v65h-28v-61.2c0-8.8-2.2-15.57-6.6-20.3-4.4-4.73-10.4-7.1-18-7.1s-13.83,2.37-18.3,7.1c-4.47,4.73-6.7,11.5-6.7,20.3v61.2h-28v-110.8h28v13.8c3.73-4.8,8.5-8.57,14.3-11.3,5.8-2.73,12.17-4.1,19.1-4.1,13.2,0,23.87,4.17,32,12.5Z"/>
    <path class="cls-5" d="M1308.62,182.44v53.6c0,3.73.9,6.43,2.7,8.1,1.8,1.67,4.83,2.5,9.1,2.5h13v23.6h-17.6c-23.6,0-35.4-11.47-35.4-34.4v-53.4h-13.2v-23h13.2v-27.4h28.2v27.4h24.8v23h-24.8Z"/>
  </g>
  <g>
    <path class="cls-3" d="M374.2,41.54c9.97-1.23,20.12-1.86,30.42-1.86,135.23.07,244.81,109.75,244.74,244.98-.07,139.1-118.72,244.83-244.98,244.74-98.6-.07-190.7-64.67-230.82-163.28"/>
    <path class="cls-3" d="M166.23,308.2c-.44-5.97-.67-12.01-.67-18.1,0-118.49,85.4-217.03,198-237.44"/>
    <ellipse class="cls-4" cx="165.57" cy="320.45" rx="14.94" ry="15.9"/>
    <path class="cls-2" d="M195.51,310.95c-2.74-34.58,2.61-70.46,17.17-104.78,7.19-16.95,16.21-32.55,26.73-46.66"/>
    <path class="cls-2" d="M334.8,491.14c-37.11-11.8-69.91-33.58-95.4-62.28"/>
    <path class="cls-2" d="M621.61,270.24c.2,3.9.3,7.82.3,11.77,0,111.88-81.76,204.24-187.55,218.1"/>
    <path class="cls-2" d="M587.88,171.36c15.09,24,25.75,51.19,30.77,80.36"/>
    <path class="cls-2" d="M485.5,85.4c37.5,15.08,69.86,40.61,93.64,73.09"/>
    <path class="cls-2" d="M457.19,77.11c5.91,1.45,11.72,3.15,17.42,5.09"/>
    <path class="cls-2" d="M280.62,113.07c35.44-26.24,79.01-41.71,126.12-41.71,13.57,0,26.86,1.28,39.73,3.74"/>
    <line class="cls-2" x1="379.36" y1="42.39" x2="382.75" y2="71.25"/>
    <line class="cls-2" x1="599.63" y1="137.31" x2="578.66" y2="152.64"/>
  </g>
  <g class="cls-6">
    <g>
      <path class="cls-5" d="M214,376.88c4.73-53.06,60.55-85.52,107.9-65.79,2.52,1.05,10.86,6.32,12.57,5.86,40.28-43.12,109.73-44.39,151.24-2.48,44.91-31.85,108.45-7.89,120.89,47.39,2.29,10.19,3.52,33,1.88,43.14-1.34,8.29-10.06,14.16-17.9,14.18l-72.1-.03c1.59,14.01-6.88,25.03-20.44,26.31h-173.41c-11.01-.73-20.47-9.83-20.45-21.52l-75.07-.09c-7.9-1.09-12.31-6.12-15.12-13.47.7-10.81-.95-22.85,0-33.5ZM401.16,297.36c-35.24,3.21-67.85,30.27-79.25,64.75-6.36,19.21-5.41,40.04-5.45,59.83,0,3.17,1.9,8.12,4.89,9.36l176.74.64c5.97-.03,7.73-5.51,8.08-10.77.5-7.45.27-18.73,0-26.38-2.04-59.45-46.99-102.72-105.02-97.43ZM518.48,405.59h75.16c.98,0,1.83-2.5,1.97-3.55,1.63-12.55.27-34.87-4.29-46.68-15.1-39.11-63.06-54.56-96.71-30.72,18.39,22.49,25.7,51.74,23.88,80.96ZM304.19,410.38c-2.11-29.88,3.84-58.15,20.8-82.5-36.19-23.58-87.56-1.24-96.61,41.95-1.71,8.17-2.39,28.74-1.32,37,.14,1.05.99,3.55,1.97,3.55h75.16Z"/>
      <path class="cls-5" d="M405.78,155.39c75.03-4.72,84.22,111,11.33,120.18-80.58,10.15-91.03-115.17-11.33-120.18ZM441.9,248.99c40.92-41.93-17.7-107.55-62.18-69.52-49.12,42,17.47,115.34,62.18,69.52Z"/>
      <path class="cls-5" d="M526.03,196.86c56.61-5.81,69.88,79.91,14.68,92.56-62.72,14.38-77.94-86.07-14.68-92.56ZM524.46,210.39c-11.48,1.61-22.98,12.78-25.79,24.36-7.38,30.3,24.57,53.88,49.81,37.19,29.88-19.76,12.65-66.69-24.02-61.54Z"/>
      <path class="cls-5" d="M287.84,200.05c54.02-5.51,69.89,75.72,17.7,91.69-64.1,19.62-83.6-84.98-17.7-91.69ZM286.27,213.58c-35.72,5.04-35.71,61.55,0,66.58,51.08,7.2,51.02-73.78,0-66.58Z"/>
    </g>
  </g>
  <g>
    <path class="cls-5" d="M836.02,315.86v139.6h-28v-59.4h-59.8v59.4h-28v-139.6h28v57.4h59.8v-57.4h28Z"/>
    <path class="cls-5" d="M968.22,344.66v110.8h-28.2v-14c-3.6,4.8-8.3,8.57-14.1,11.3-5.8,2.73-12.1,4.1-18.9,4.1-8.67,0-16.33-1.83-23-5.5-6.67-3.67-11.9-9.07-15.7-16.2-3.8-7.13-5.7-15.63-5.7-25.5v-65h28v61c0,8.8,2.2,15.57,6.6,20.3,4.4,4.73,10.4,7.1,18,7.1s13.8-2.37,18.2-7.1c4.4-4.73,6.6-11.5,6.6-20.3v-61h28.2Z"/>
    <path class="cls-5" d="M1038.72,347.86c6.33-3.33,13.57-5,21.7-5,9.46,0,18.03,2.33,25.7,7,7.67,4.67,13.73,11.3,18.2,19.9,4.47,8.6,6.7,18.57,6.7,29.9s-2.23,21.37-6.7,30.1c-4.47,8.73-10.53,15.5-18.2,20.3-7.67,4.8-16.23,7.2-25.7,7.2-8.27,0-15.5-1.63-21.7-4.9s-11.17-7.5-14.9-12.7v15.8h-28v-148h28v53.4c3.6-5.33,8.57-9.67,14.9-13ZM1078.32,382.36c-2.73-4.87-6.33-8.57-10.8-11.1-4.47-2.53-9.3-3.8-14.5-3.8s-9.83,1.3-14.3,3.9c-4.47,2.6-8.07,6.37-10.8,11.3-2.73,4.93-4.1,10.73-4.1,17.4s1.37,12.47,4.1,17.4c2.73,4.93,6.33,8.7,10.8,11.3,4.47,2.6,9.23,3.9,14.3,3.9s10.03-1.33,14.5-4c4.47-2.67,8.07-6.47,10.8-11.4,2.73-4.93,4.1-10.8,4.1-17.6s-1.37-12.43-4.1-17.3Z"/>
  </g>
</svg>